<svg xmlns="http://www.w3.org/2000/svg" width="114" height="52" viewBox="0 0 114 52" fill="none">
<g opacity="0.25">
<path opacity="0.25" d="M88.3862 50.423C101.917 50.423 112.886 39.4539 112.886 25.923C112.886 12.392 101.917 1.42297 88.3862 1.42297C74.8553 1.42297 63.8862 12.392 63.8862 25.923C63.8862 39.4539 74.8553 50.423 88.3862 50.423Z" stroke="#33A0FF" stroke-width="2"/>
</g>
<path fill-rule="evenodd" clip-rule="evenodd" d="M94.4402 28.878C94.9543 28.8773 95.4522 28.6982 95.849 28.3715C96.2458 28.0447 96.517 27.5904 96.6163 27.086L97.7313 21.513C97.7958 21.19 97.788 20.8567 97.7084 20.5371C97.6288 20.2175 97.4793 19.9195 97.2707 19.6646C97.0622 19.4097 96.7997 19.2041 96.5022 19.0627C96.2048 18.9214 95.8796 18.8477 95.5503 18.847H84.4502V17.732C84.45 17.4371 84.333 17.1544 84.1247 16.9456C83.9165 16.7368 83.6341 16.619 83.3393 16.618H81.1243C80.8345 16.6267 80.5594 16.7479 80.3575 16.9559C80.1556 17.164 80.0427 17.4425 80.0427 17.7325C80.0427 18.0224 80.1556 18.301 80.3575 18.509C80.5594 18.7171 80.8345 18.8383 81.1243 18.847H82.2392V29.992C81.798 29.99 81.366 30.1191 80.9982 30.3628C80.6303 30.6065 80.3431 30.9539 80.1728 31.361C80.0026 31.7681 79.957 32.2166 80.0419 32.6497C80.1267 33.0827 80.3382 33.4808 80.6496 33.7936C80.9609 34.1063 81.358 34.3196 81.7907 34.4064C82.2234 34.4932 82.672 34.4497 83.0799 34.2812C83.4878 34.1128 83.8365 33.8272 84.0819 33.4604C84.3273 33.0936 84.4582 32.6623 84.4582 32.221H92.2243C92.226 32.6597 92.3577 33.088 92.6027 33.4519C92.8478 33.8158 93.1951 34.0989 93.6009 34.2656C94.0067 34.4322 94.4528 34.4749 94.8828 34.3882C95.3129 34.3016 95.7076 34.0894 96.0172 33.7786C96.3267 33.4677 96.5373 33.0722 96.6222 32.6418C96.7072 32.2114 96.6627 31.7655 96.4944 31.3604C96.3261 30.9552 96.0416 30.609 95.6767 30.3655C95.3118 30.1219 94.883 29.992 94.4443 29.992H84.4573V28.878H94.4402ZM95.5553 21.078L94.4402 26.651H84.4532V21.078H95.5532H95.5553Z" fill="#33A0FF"/>
<g opacity="0.25">
<path opacity="0.25" d="M26.8862 50.423C40.6933 50.423 51.8862 39.4539 51.8862 25.923C51.8862 12.392 40.6933 1.42297 26.8862 1.42297C13.0791 1.42297 1.88623 12.392 1.88623 25.923C1.88623 39.4539 13.0791 50.423 26.8862 50.423Z" stroke="#33A0FF" stroke-width="2"/>
</g>
<path fill-rule="evenodd" clip-rule="evenodd" d="M29.8221 19.961C30.466 19.9617 31.0959 20.1482 31.6363 20.4981C32.1768 20.8481 32.6046 21.3466 32.8686 21.9338C33.1326 22.5211 33.2215 23.172 33.1246 23.8085C33.0276 24.445 32.749 25.04 32.3221 25.522C31.7091 26.213 26.4822 31.106 26.4822 31.106C26.4822 31.106 21.2442 26.213 20.6312 25.511C20.09 24.9035 19.7922 24.1176 19.7952 23.304C19.8103 22.4273 20.1692 21.5915 20.7946 20.9769C21.42 20.3622 22.2618 20.0178 23.1387 20.0178C24.0155 20.0178 24.8573 20.3622 25.4827 20.9769C26.108 21.5915 26.467 22.4273 26.4822 23.304C26.4822 22.8649 26.5686 22.43 26.7367 22.0243C26.9047 21.6186 27.1511 21.25 27.4616 20.9395C27.7721 20.6289 28.1407 20.3826 28.5464 20.2145C28.9522 20.0465 29.387 19.96 29.8262 19.96L29.8221 19.961ZM29.8262 17.731C28.6199 17.7289 27.4458 18.1204 26.4822 18.846C25.3782 18.0266 24.0103 17.6442 22.6415 17.7723C21.2726 17.9004 19.9994 18.5299 19.0666 19.5399C18.1338 20.5498 17.6073 21.8689 17.5882 23.2436C17.5691 24.6183 18.0588 25.9515 18.9631 26.987C19.5891 27.705 23.7121 31.565 24.9631 32.731C25.376 33.1172 25.9203 33.332 26.4856 33.332C27.051 33.332 27.5952 33.1172 28.0081 32.731C29.2521 31.566 33.3581 27.716 33.9921 26.999C34.7034 26.1955 35.1677 25.2037 35.329 24.1427C35.4903 23.0817 35.3419 21.9968 34.9015 21.0181C34.4611 20.0395 33.7475 19.2088 32.8465 18.6259C31.9455 18.0429 30.8953 17.7326 29.8221 17.732L29.8262 17.731Z" fill="#33A0FF"/>
</svg>
