<svg width="133" height="44" viewBox="0 0 133 44" fill="none" xmlns="http://www.w3.org/2000/svg">
<rect y="0.00244141" width="44" height="44" rx="16" fill="#40BFFF"/>
<path fill-rule="evenodd" clip-rule="evenodd" d="M31.0619 20.274C32.0165 21.2286 32.0165 22.7763 31.0619 23.7309L23.7285 31.0643C22.7739 32.0189 21.2262 32.0189 20.2716 31.0643L12.9382 23.7309C11.9836 22.7763 11.9836 21.2286 12.9382 20.274L20.2716 12.9406C21.2262 11.986 22.7739 11.986 23.7285 12.9406L31.0619 20.274ZM22.0001 18.1261L18.1237 22.0024L22.0001 25.8788L25.8764 22.0024L22.0001 18.1261Z" fill="white"/>
<path d="M54.5094 19.6102V22.1662H58.6314V24.5422H54.5094V27.3142H59.1714V29.7802H51.4314V17.1442H59.1714V19.6102H54.5094ZM68.9097 22.1842V24.7402H60.9897V22.1842H68.9097ZM71.0891 23.4442C71.0891 22.1962 71.3591 21.0862 71.8991 20.1142C72.4391 19.1302 73.1891 18.3682 74.1491 17.8282C75.1211 17.2762 76.2191 17.0002 77.4431 17.0002C78.9431 17.0002 80.2271 17.3962 81.2951 18.1882C82.3631 18.9802 83.0771 20.0602 83.4371 21.4282H80.0531C79.8011 20.9002 79.4411 20.4982 78.9731 20.2222C78.5171 19.9462 77.9951 19.8082 77.4071 19.8082C76.4591 19.8082 75.6911 20.1382 75.1031 20.7982C74.5151 21.4582 74.2211 22.3402 74.2211 23.4442C74.2211 24.5482 74.5151 25.4302 75.1031 26.0902C75.6911 26.7502 76.4591 27.0802 77.4071 27.0802C77.9951 27.0802 78.5171 26.9422 78.9731 26.6662C79.4411 26.3902 79.8011 25.9882 80.0531 25.4602H83.4371C83.0771 26.8282 82.3631 27.9082 81.2951 28.7002C80.2271 29.4802 78.9431 29.8702 77.4431 29.8702C76.2191 29.8702 75.1211 29.6002 74.1491 29.0602C73.1891 28.5082 72.4391 27.7462 71.8991 26.7742C71.3591 25.8022 71.0891 24.6922 71.0891 23.4442ZM89.8941 29.9242C88.9101 29.9242 88.0221 29.7142 87.2301 29.2942C86.4501 28.8742 85.8321 28.2742 85.3761 27.4942C84.9321 26.7142 84.7101 25.8022 84.7101 24.7582C84.7101 23.7262 84.9381 22.8202 85.3941 22.0402C85.8501 21.2482 86.4741 20.6422 87.2661 20.2222C88.0581 19.8022 88.9461 19.5922 89.9301 19.5922C90.9141 19.5922 91.8021 19.8022 92.5941 20.2222C93.3861 20.6422 94.0101 21.2482 94.4661 22.0402C94.9221 22.8202 95.1501 23.7262 95.1501 24.7582C95.1501 25.7902 94.9161 26.7022 94.4481 27.4942C93.9921 28.2742 93.3621 28.8742 92.5581 29.2942C91.7661 29.7142 90.8781 29.9242 89.8941 29.9242ZM89.8941 27.2602C90.4821 27.2602 90.9801 27.0442 91.3881 26.6122C91.8081 26.1802 92.0181 25.5622 92.0181 24.7582C92.0181 23.9542 91.8141 23.3362 91.4061 22.9042C91.0101 22.4722 90.5181 22.2562 89.9301 22.2562C89.3301 22.2562 88.8321 22.4722 88.4361 22.9042C88.0401 23.3242 87.8421 23.9422 87.8421 24.7582C87.8421 25.5622 88.0341 26.1802 88.4181 26.6122C88.8141 27.0442 89.3061 27.2602 89.8941 27.2602ZM109.599 19.6282C110.847 19.6282 111.837 20.0062 112.569 20.7622C113.313 21.5182 113.685 22.5682 113.685 23.9122V29.7802H110.625V24.3262C110.625 23.6782 110.451 23.1802 110.103 22.8322C109.767 22.4722 109.299 22.2922 108.699 22.2922C108.099 22.2922 107.625 22.4722 107.277 22.8322C106.941 23.1802 106.773 23.6782 106.773 24.3262V29.7802H103.713V24.3262C103.713 23.6782 103.539 23.1802 103.191 22.8322C102.855 22.4722 102.387 22.2922 101.787 22.2922C101.187 22.2922 100.713 22.4722 100.365 22.8322C100.029 23.1802 99.861 23.6782 99.861 24.3262V29.7802H96.783V19.7362H99.861V20.9962C100.173 20.5762 100.581 20.2462 101.085 20.0062C101.589 19.7542 102.159 19.6282 102.795 19.6282C103.551 19.6282 104.223 19.7902 104.811 20.1142C105.411 20.4382 105.879 20.9002 106.215 21.5002C106.563 20.9482 107.037 20.4982 107.637 20.1502C108.237 19.8022 108.891 19.6282 109.599 19.6282ZM128.654 19.6282C129.902 19.6282 130.892 20.0062 131.624 20.7622C132.368 21.5182 132.74 22.5682 132.74 23.9122V29.7802H129.68V24.3262C129.68 23.6782 129.506 23.1802 129.158 22.8322C128.822 22.4722 128.354 22.2922 127.754 22.2922C127.154 22.2922 126.68 22.4722 126.332 22.8322C125.996 23.1802 125.828 23.6782 125.828 24.3262V29.7802H122.768V24.3262C122.768 23.6782 122.594 23.1802 122.246 22.8322C121.91 22.4722 121.442 22.2922 120.842 22.2922C120.242 22.2922 119.768 22.4722 119.42 22.8322C119.084 23.1802 118.916 23.6782 118.916 24.3262V29.7802H115.838V19.7362H118.916V20.9962C119.228 20.5762 119.636 20.2462 120.14 20.0062C120.644 19.7542 121.214 19.6282 121.85 19.6282C122.606 19.6282 123.278 19.7902 123.866 20.1142C124.466 20.4382 124.934 20.9002 125.27 21.5002C125.618 20.9482 126.092 20.4982 126.692 20.1502C127.292 19.8022 127.946 19.6282 128.654 19.6282Z" fill="#22262A"/>
</svg>
