<svg width="39" height="26" viewBox="0 0 39 26" fill="none" xmlns="http://www.w3.org/2000/svg">
<path d="M1.76475 0.188232H36.7648C36.9881 0.192523 37.2084 0.240837 37.4131 0.330322C37.6177 0.419807 37.8028 0.548678 37.9576 0.709717C38.1124 0.870756 38.2339 1.06075 38.3153 1.2688C38.3966 1.47685 38.4363 1.69878 38.4317 1.92212V23.5964C38.4363 23.8198 38.3966 24.0417 38.3153 24.2498C38.2339 24.4578 38.1124 24.6478 37.9576 24.8088C37.8028 24.9699 37.6177 25.0987 37.4131 25.1882C37.2084 25.2777 36.9881 25.326 36.7648 25.3303H1.76475C1.54141 25.326 1.32112 25.2777 1.11644 25.1882C0.911755 25.0987 0.726697 24.9699 0.57188 24.8088C0.417064 24.6478 0.295446 24.4578 0.214092 24.2498C0.132738 24.0417 0.09325 23.8198 0.097759 23.5964V1.92212C0.09325 1.69878 0.132738 1.47685 0.214092 1.2688C0.295446 1.06075 0.417064 0.870756 0.57188 0.709717C0.726697 0.548678 0.911755 0.419807 1.11644 0.330322C1.32112 0.240837 1.54141 0.192523 1.76475 0.188232Z" fill="url(#paint0_linear_0_1)"/>
<path d="M30.0696 17.4143L29.8176 16.1194H27.0836L26.6346 17.4143H24.3926L27.5996 9.34937C27.6742 9.14937 27.8108 8.97835 27.9895 8.86157C28.1682 8.7448 28.3795 8.68848 28.5927 8.70044H30.3217L32.0436 17.4153L30.0696 17.4143ZM28.8336 11.0701L27.7036 14.3313H29.4696L28.8336 11.0701ZM21.5466 11.1843C21.5466 12.1363 24.5466 12.3401 24.5466 14.5291C24.5466 16.6371 22.3316 17.4124 20.8646 17.4124C20.0308 17.4261 19.2035 17.2639 18.4366 16.9363L18.7566 15.0461C19.6366 15.7661 22.3057 15.9714 22.3057 14.8284C22.3057 13.6854 19.3307 13.6582 19.3307 11.4822C19.3307 9.17018 21.8647 8.69409 22.9307 8.69409C23.5909 8.71102 24.244 8.83515 24.8646 9.06128L24.5576 10.8704C23.6396 10.3584 21.5447 10.2362 21.5447 11.1882L21.5466 11.1843ZM14.9626 17.4143L16.3066 8.69897H18.4576L17.1136 17.4143H14.9626ZM9.80566 17.4143L7.93958 9.85229C8.26923 10.0582 8.58374 10.2875 8.88062 10.5383C9.77763 11.3059 10.4602 12.2928 10.8616 13.4031L11.1046 14.6941L13.1556 8.70044H15.4706L12.0486 17.4153L9.80566 17.4143ZM6.0116 8.93823L5.91162 8.90845L6.0116 8.93823ZM5.79163 8.87329L5.74365 8.86011L5.79163 8.87329ZM6.32068 9.04321L6.19263 8.99829L6.32068 9.04321ZM7.81165 9.76831C7.74498 9.72698 7.67824 9.68717 7.61157 9.64917C7.67557 9.69317 7.74157 9.73119 7.80957 9.77319L7.81165 9.76831ZM7.29761 9.47827C7.23961 9.44827 7.17968 9.41643 7.12268 9.38843C7.17768 9.42143 7.23665 9.45315 7.29565 9.48315L7.29761 9.47827ZM6.76257 9.22144L6.64465 9.17017L6.76257 9.22144Z" fill="#494CA3"/>
<path d="M10.8586 13.4072L10.1346 9.48925C10.0966 9.2531 9.96983 9.0404 9.78027 8.89452C9.59072 8.74864 9.35264 8.6809 9.11462 8.70458H5.72461L5.68457 8.85155C6.86162 9.16894 7.95245 9.74641 8.87659 10.5415C9.77411 11.3092 10.4571 12.2965 10.8586 13.4072Z" fill="#FFC000"/>
<defs>
<linearGradient id="paint0_linear_0_1" x1="19.2648" y1="25.3303" x2="19.2648" y2="0.188232" gradientUnits="userSpaceOnUse">
<stop stop-color="#E59703"/>
<stop offset="0.231" stop-color="#E59703"/>
<stop offset="0.234" stop-color="white"/>
<stop offset="0.761" stop-color="white"/>
<stop offset="0.766" stop-color="#5457BB"/>
<stop offset="1" stop-color="#5457BB"/>
</linearGradient>
</defs>
</svg>
